<svg id="Layer_1" data-name="Layer 1" xmlns="http://www.w3.org/2000/svg" viewBox="0 0 26.86 25.91"><g id="layer1"><path id="path1575" d="M18,0h-.2c-2.3.4-3.6,2.8-3.7,5-.3,1.9.6,4.4,2.7,4.9a1.4,1.4,0,0,0,.9-.1c2.6-.9,3.7-3.9,3.4-6.4A3.39,3.39,0,0,0,18,0ZM8.33.1c-1.4,0-2.5,1.5-2.8,2.8C5,5.6,6.33,9,9.13,9.8a1.1,1.1,0,0,0,.8,0c1.9-.3,2.7-2.4,2.6-4.2-.1-2.3-1.2-4.9-3.6-5.5Zm15.9,7.7c-2.5.1-4.2,2.6-4.4,4.9-.3,1.7.6,3.9,2.5,4,2.6,0,4.4-2.9,4.5-5.3.2-1.6-.8-3.6-2.6-3.6Zm-21.6.5A2.38,2.38,0,0,0,.23,10c-.9,2.9.9,6.5,4,7.1a2.51,2.51,0,0,0,2.7-1.9,5.79,5.79,0,0,0-3-6.5,2.51,2.51,0,0,0-1.3-.4Zm11.1,5.1A7.56,7.56,0,0,0,8.23,16a15.76,15.76,0,0,0-3.1,6.2,2.75,2.75,0,0,0,1.79,3.47,2.47,2.47,0,0,0,.71.13c2.1.1,3.9-1.4,6.1-1.5,1.8-.3,3.4.7,5,1.3,1.4.6,3.3.4,4-1.1s-.3-3.1-.9-4.4c-1.4-2.2-2.8-4.4-5.1-5.8a5.82,5.82,0,0,0-3-.9Z" transform="translate(0 0)"/></g></svg>