<svg id="Layer_1" data-name="Layer 1" xmlns="http://www.w3.org/2000/svg" viewBox="0 0 45.59 52.4"><defs><style>.cls-1,.cls-2{fill:#111;}.cls-1{stroke:#111;stroke-miterlimit:10;stroke-width:2px;}</style></defs><path class="cls-1" d="M315.47,348.78,297,399.18h4l6.36-17.29.05-.14,1.37-3.6,0-.06c4-11.3,7-19.57,8.47-24l.52-1.54,1.27-3.81Z" transform="translate(-295.53 -347.78)"/><g id="layer1"><path id="path1575" class="cls-2" d="M332.3,363.41h-.17c-2.3.39-3.56,2.82-3.75,5-.26,1.94.59,4.44,2.73,4.88a2.09,2.09,0,0,0,.93,0c2.58-.86,3.73-3.91,3.36-6.43C335.29,365.16,334.06,363.39,332.3,363.41Zm-9.75.1a3.29,3.29,0,0,0-2.77,2.85c-.47,2.7.76,6.06,3.57,6.91a2.15,2.15,0,0,0,.8,0c1.9-.31,2.71-2.45,2.63-4.17-.06-2.27-1.24-4.89-3.6-5.53A2.27,2.27,0,0,0,322.55,363.51Zm16,7.67c-2.47.15-4.17,2.62-4.41,4.92-.32,1.67.56,3.89,2.46,4,2.64,0,4.45-2.86,4.52-5.29C341.27,373.22,340.32,371.27,338.53,371.18Zm-21.65.55a2.51,2.51,0,0,0-2.43,1.69c-.91,2.86.93,6.49,4,7.09a2.5,2.5,0,0,0,2.69-1.93,5.88,5.88,0,0,0-3-6.53A2.49,2.49,0,0,0,316.88,371.73ZM328,376.86a7.51,7.51,0,0,0-5.49,2.61,15,15,0,0,0-3.09,6.22,2.74,2.74,0,0,0,2.48,3.56c2.12.06,3.94-1.39,6.05-1.5,1.79-.28,3.4.66,5,1.26,1.38.59,3.27.37,4-1.11s-.26-3.1-.93-4.44c-1.37-2.17-2.84-4.44-5.08-5.8A5.53,5.53,0,0,0,328,376.86Z" transform="translate(-295.53 -347.78)"/></g></svg>